<svg width="620" height="8" viewBox="0 0 620 8" fill="none" xmlns="http://www.w3.org/2000/svg">
<path d="M16 8H0L7.91579 0L16 8Z" fill="#F9F0F6"/>
<path d="M32 8H16L23.9158 0L32 8Z" fill="#F9F0F6"/>
<path d="M48 8H32L39.9158 0L48 8Z" fill="#F9F0F6"/>
<path d="M64 8H48L55.9158 0L64 8Z" fill="#F9F0F6"/>
<path d="M80 8H64L71.9158 0L80 8Z" fill="#F9F0F6"/>
<path d="M96 8H80L87.9158 0L96 8Z" fill="#F9F0F6"/>
<path d="M112 8H96L103.916 0L112 8Z" fill="#F9F0F6"/>
<path d="M128 8H112L119.916 0L128 8Z" fill="#F9F0F6"/>
<path d="M144 8H128L135.916 0L144 8Z" fill="#F9F0F6"/>
<path d="M160 8H144L151.916 0L160 8Z" fill="#F9F0F6"/>
<path d="M176 8H160L167.916 0L176 8Z" fill="#F9F0F6"/>
<path d="M192 8H176L183.916 0L192 8Z" fill="#F9F0F6"/>
<path d="M208 8H192L199.916 0L208 8Z" fill="#F9F0F6"/>
<path d="M224 8H208L215.916 0L224 8Z" fill="#F9F0F6"/>
<path d="M240 8H224L231.916 0L240 8Z" fill="#F9F0F6"/>
<path d="M256 8H240L247.916 0L256 8Z" fill="#F9F0F6"/>
<path d="M272 8H256L263.916 0L272 8Z" fill="#F9F0F6"/>
<path d="M288 8H272L279.916 0L288 8Z" fill="#F9F0F6"/>
<path d="M304 8H288L295.916 0L304 8Z" fill="#F9F0F6"/>
<path d="M320 8H304L311.916 0L320 8Z" fill="#F9F0F6"/>
<path d="M336 8H320L327.916 0L336 8Z" fill="#F9F0F6"/>
<path d="M352 8H336L343.916 0L352 8Z" fill="#F9F0F6"/>
<path d="M368 8H352L359.916 0L368 8Z" fill="#F9F0F6"/>
<path d="M384 8H368L375.916 0L384 8Z" fill="#F9F0F6"/>
<path d="M400 8H384L391.916 0L400 8Z" fill="#F9F0F6"/>
<path d="M416 8H400L407.916 0L416 8Z" fill="#F9F0F6"/>
<path d="M432 8H416L423.916 0L432 8Z" fill="#F9F0F6"/>
<path d="M448 8H432L439.916 0L448 8Z" fill="#F9F0F6"/>
<path d="M464 8H448L455.916 0L464 8Z" fill="#F9F0F6"/>
<path d="M480 8H464L471.916 0L480 8Z" fill="#F9F0F6"/>
<path d="M496 8H480L487.916 0L496 8Z" fill="#F9F0F6"/>
<path d="M512 8H496L503.916 0L512 8Z" fill="#F9F0F6"/>
<path d="M528 8H512L519.916 0L528 8Z" fill="#F9F0F6"/>
<path d="M544 8H528L535.916 0L544 8Z" fill="#F9F0F6"/>
<path d="M560 8H544L551.916 0L560 8Z" fill="#F9F0F6"/>
<path d="M576 8H560L567.916 0L576 8Z" fill="#F9F0F6"/>
<path d="M592 8H576L583.916 0L592 8Z" fill="#F9F0F6"/>
<path d="M608 8H592L599.916 0L608 8Z" fill="#F9F0F6"/>
<path d="M624 8H608L615.916 0L624 8Z" fill="#F9F0F6"/>
</svg>