<svg width="22" height="16" viewBox="0 0 22 16" fill="none" xmlns="http://www.w3.org/2000/svg">
<path d="M5.37313 16C3.78109 16 2.48756 15.3433 1.49254 14.0299C0.497512 12.7164 0 11.0846 0 9.13433C0 6.26866 0.855721 4.0398 2.56716 2.44776C4.27861 0.855721 6.62687 0.0398005 9.61194 0V3.46269C7.8607 3.50249 6.54726 3.9602 5.67164 4.83582C4.79602 5.71144 4.35821 6.74627 4.35821 7.9403C4.35821 8.29851 4.37811 8.55722 4.41791 8.71642C4.93532 8.31841 5.59204 8.1194 6.38806 8.1194C7.42289 8.1194 8.25871 8.45771 8.89552 9.13433C9.57214 9.77115 9.91045 10.7065 9.91045 11.9403C9.91045 13.0945 9.49254 14.0697 8.65672 14.8657C7.82089 15.6219 6.72637 16 5.37313 16ZM16.8358 16C15.2438 16 13.9502 15.3433 12.9552 14.0299C11.9602 12.7164 11.4627 11.0846 11.4627 9.13433C11.4627 6.26866 12.3184 4.0398 14.0299 2.44776C15.7413 0.855721 18.0896 0.0398005 21.0746 0V3.46269C19.3234 3.50249 18.01 3.9602 17.1343 4.83582C16.2587 5.71144 15.8209 6.74627 15.8209 7.9403C15.8209 8.29851 15.8408 8.55722 15.8806 8.71642C16.398 8.31841 17.0547 8.1194 17.8507 8.1194C18.8856 8.1194 19.7214 8.45771 20.3582 9.13433C21.0348 9.77115 21.3731 10.7065 21.3731 11.9403C21.3731 13.0945 20.9552 14.0697 20.1194 14.8657C19.2836 15.6219 18.1891 16 16.8358 16Z" fill="#FF7452"/>
</svg>
