<svg preserveAspectRatio="none" width="100%" height="100%" overflow="visible" style="display: block;" viewBox="0 0 87.8426 120.004" fill="none" xmlns="http://www.w3.org/2000/svg">
<path id="Vector 55" d="M10.0803 12.9604L16.8005 4.80014L27.8408 0H40.8012H49.4415H59.5218L66.722 4.80014L72.9622 8.64026L78.2423 14.8804L84.0025 21.1206L87.8426 36.4811V51.3615L85.9225 67.202L81.6024 76.8023L74.8822 83.0425L72.9622 91.6827L66.722 104.163L57.1217 116.163L46.0814 120.004L35.5211 118.084L27.8408 113.763L21.6006 107.043L16.8005 101.283L13.9204 94.5628L10.0803 85.9226V80.1624L6.7202 73.4422L4.32013 67.202L2.40007 60.9618V48.9615L0 43.6813V34.561L2.40007 25.4408L6.7202 21.1206L10.0803 12.9604Z" fill="var(--fill-0, #A6FFFF)"/>
</svg>
